# xmcd
#
# Track frame offsets:
#	182
#	27545
#	55675
#	84640
#	106560
#	145067
#	170280
#	204220
#
# Disc length: 3256 seconds
#
# Revision: 7
# Processed by: cddbd v1.5.2PL0 Copyright (c) Steve Scherf et al.
# Submitted via: EasyCDDAExtractor 5.0.6
#
DISCID=5b0cb608
DTITLE=Built To Spill - Perfect From Now On
DYEAR=1997
DGENRE=Indie Rock
TTITLE0=Randy Described Eternity
TTITLE1=I Would Hurt A Fly
TTITLE2=Stop The Show
TTITLE3=Made-Up Dreams
TTITLE4=Velvet Waltz
TTITLE5=Out Of Site
TTITLE6=Kicked It In The Sun
TTITLE7=Untrustable/Part 2 (About Someone Else)
EXTD=
EXTT0=
EXTT1=
EXTT2=
EXTT3=
EXTT4=
EXTT5=
EXTT6=
EXTT7=
PLAYORDER=
